<mxfile host="app.diagrams.net" agent="Mozilla/5.0 (Windows NT 10.0; Win64; x64) AppleWebKit/537.36 (KHTML, like Gecko) Chrome/136.0.0.0 Safari/537.36" version="27.0.5">
  <diagram name="Page-1" id="GtVazcyPuwnAEFt3X6vV">
    <mxGraphModel dx="1042" dy="527" grid="1" gridSize="10" guides="1" tooltips="1" connect="1" arrows="1" fold="1" page="1" pageScale="1" pageWidth="827" pageHeight="1169" math="0" shadow="0">
      <root>
        <mxCell id="0" />
        <mxCell id="1" parent="0" />
        <mxCell id="4jDkEFGBAGBPnvT--8wK-1" value="" style="shape=or;whiteSpace=wrap;html=1;rotation=90;" parent="1" vertex="1">
          <mxGeometry x="608" y="362.5" width="150" height="180" as="geometry" />
        </mxCell>
        <mxCell id="4jDkEFGBAGBPnvT--8wK-4" value="" style="shape=image;html=1;verticalAlign=top;verticalLabelPosition=bottom;labelBackgroundColor=#ffffff;imageAspect=0;aspect=fixed;image=https://cdn1.iconfinder.com/data/icons/unicons-line-vol-3/24/flower-128.png" parent="1" vertex="1">
          <mxGeometry x="640" y="222.5" width="168" height="168" as="geometry" />
        </mxCell>
        <mxCell id="4jDkEFGBAGBPnvT--8wK-6" value="Humidity / temperature sensor" style="sketch=0;outlineConnect=0;fontColor=#232F3E;gradientColor=none;fillColor=#7AA116;strokeColor=none;dashed=0;verticalLabelPosition=bottom;verticalAlign=top;align=center;html=1;fontSize=12;fontStyle=0;aspect=fixed;pointerEvents=1;shape=mxgraph.aws4.iot_thing_temperature_humidity_sensor;" parent="1" vertex="1">
          <mxGeometry x="458" y="370" width="110" height="110" as="geometry" />
        </mxCell>
        <mxCell id="4jDkEFGBAGBPnvT--8wK-27" style="edgeStyle=orthogonalEdgeStyle;rounded=0;orthogonalLoop=1;jettySize=auto;html=1;exitX=1;exitY=0.5;exitDx=0;exitDy=0;exitPerimeter=0;entryX=0;entryY=0.5;entryDx=0;entryDy=0;" parent="1" source="4jDkEFGBAGBPnvT--8wK-7" edge="1">
          <mxGeometry relative="1" as="geometry">
            <mxPoint x="330" y="228.5" as="targetPoint" />
          </mxGeometry>
        </mxCell>
        <mxCell id="4jDkEFGBAGBPnvT--8wK-7" value="Raspberry Pi Pico 2W" style="verticalLabelPosition=bottom;verticalAlign=top;html=1;shape=mxgraph.basic.patternFillRect;fillStyle=diagRev;step=5;fillStrokeWidth=0.2;fillStrokeColor=#dddddd;" parent="1" vertex="1">
          <mxGeometry x="30" y="82.5" width="190" height="467.5" as="geometry" />
        </mxCell>
        <mxCell id="4jDkEFGBAGBPnvT--8wK-10" style="edgeStyle=orthogonalEdgeStyle;rounded=0;orthogonalLoop=1;jettySize=auto;html=1;exitX=1;exitY=0.335;exitDx=0;exitDy=0;exitPerimeter=0;" parent="1" source="4jDkEFGBAGBPnvT--8wK-8" edge="1">
          <mxGeometry relative="1" as="geometry">
            <mxPoint x="603" y="132.5" as="targetPoint" />
          </mxGeometry>
        </mxCell>
        <mxCell id="4jDkEFGBAGBPnvT--8wK-8" value="buzzer" style="pointerEvents=1;verticalLabelPosition=bottom;shadow=0;dashed=0;align=center;html=1;verticalAlign=top;shape=mxgraph.electrical.electro-mechanical.buzzer;rotation=90;" parent="1" vertex="1">
          <mxGeometry x="540" y="20" width="90" height="110" as="geometry" />
        </mxCell>
        <mxCell id="4jDkEFGBAGBPnvT--8wK-9" value="" style="line;strokeWidth=1;rotatable=0;dashed=0;labelPosition=right;align=left;verticalAlign=middle;spacingTop=0;spacingLeft=6;points=[];portConstraint=eastwest;" parent="1" vertex="1">
          <mxGeometry x="220" y="120" width="380" height="10" as="geometry" />
        </mxCell>
        <mxCell id="4jDkEFGBAGBPnvT--8wK-11" style="edgeStyle=orthogonalEdgeStyle;rounded=0;orthogonalLoop=1;jettySize=auto;html=1;exitX=1;exitY=0.665;exitDx=0;exitDy=0;exitPerimeter=0;entryX=0.909;entryY=0.69;entryDx=0;entryDy=0;entryPerimeter=0;" parent="1" source="4jDkEFGBAGBPnvT--8wK-8" target="4jDkEFGBAGBPnvT--8wK-9" edge="1">
          <mxGeometry relative="1" as="geometry" />
        </mxCell>
        <mxCell id="4jDkEFGBAGBPnvT--8wK-13" value="" style="line;strokeWidth=2;direction=south;html=1;rotation=90;" parent="1" vertex="1">
          <mxGeometry x="335.07" y="309.94" width="10" height="235.13" as="geometry" />
        </mxCell>
        <mxCell id="4jDkEFGBAGBPnvT--8wK-18" value="" style="line;strokeWidth=1;rotatable=0;dashed=0;labelPosition=right;align=left;verticalAlign=middle;spacingTop=0;spacingLeft=6;points=[];portConstraint=eastwest;" parent="1" vertex="1">
          <mxGeometry x="518" y="342.5" width="130" height="10" as="geometry" />
        </mxCell>
        <mxCell id="4jDkEFGBAGBPnvT--8wK-20" style="edgeStyle=orthogonalEdgeStyle;rounded=0;orthogonalLoop=1;jettySize=auto;html=1;exitX=0;exitY=0.75;exitDx=0;exitDy=0;exitPerimeter=0;entryX=0.973;entryY=0.24;entryDx=0;entryDy=0;entryPerimeter=0;" parent="1" source="4jDkEFGBAGBPnvT--8wK-1" target="4jDkEFGBAGBPnvT--8wK-18" edge="1">
          <mxGeometry relative="1" as="geometry" />
        </mxCell>
        <mxCell id="4jDkEFGBAGBPnvT--8wK-24" value="" style="edgeStyle=orthogonalEdgeStyle;rounded=0;orthogonalLoop=1;jettySize=auto;html=1;" parent="1" source="4jDkEFGBAGBPnvT--8wK-22" target="4jDkEFGBAGBPnvT--8wK-18" edge="1">
          <mxGeometry relative="1" as="geometry" />
        </mxCell>
        <mxCell id="4jDkEFGBAGBPnvT--8wK-22" value="" style="line;strokeWidth=2;direction=south;html=1;" parent="1" vertex="1">
          <mxGeometry x="508" y="352.5" width="10" height="30" as="geometry" />
        </mxCell>
        <mxCell id="BxhmORidqIXCno2j9P2m-1" value="soil moisture sensor" style="sketch=0;outlineConnect=0;fontColor=#232F3E;gradientColor=none;fillColor=#7AA116;strokeColor=none;dashed=0;verticalLabelPosition=bottom;verticalAlign=top;align=center;html=1;fontSize=12;fontStyle=0;aspect=fixed;pointerEvents=1;shape=mxgraph.aws4.iot_thing_humidity_sensor;" parent="1" vertex="1">
          <mxGeometry x="630" y="382.5" width="97.5" height="97.5" as="geometry" />
        </mxCell>
        <mxCell id="2x3R3zZgIAtM2Q85tvwC-1" value="red / green led light" style="shape=image;html=1;verticalAlign=top;verticalLabelPosition=bottom;labelBackgroundColor=#ffffff;imageAspect=0;aspect=fixed;image=https://cdn3.iconfinder.com/data/icons/energy-and-power-glyph-24-px/24/Lamp_electric_light_led_bulb_light_bulb_luminaire-128.png" vertex="1" parent="1">
          <mxGeometry x="310" y="170" width="128" height="128" as="geometry" />
        </mxCell>
      </root>
    </mxGraphModel>
  </diagram>
</mxfile>
